<?xml version="1.0" encoding="iso-8859-1"?>
<!-- Generator: Adobe Illustrator 19.0.0, SVG Export Plug-In . SVG Version: 6.00 Build 0)  -->
<svg version="1.1" id="Layer_1" xmlns="http://www.w3.org/2000/svg" xmlns:xlink="http://www.w3.org/1999/xlink" x="0px" y="0px"
	 viewBox="0 0 512 512" style="enable-background:new 0 0 512 512;" xml:space="preserve">
<path style="fill:#BD5200;" d="M478.609,492.522H33.391V125.217h445.217V492.522z"/>
<path style="fill:#990000;" d="M500.87,136.348v11.13c0,6.147-4.983,11.13-11.13,11.13H22.261c-6.147,0-11.13-4.983-11.13-11.13
	v-11.13c0-6.147,4.983-11.13,11.13-11.13h467.478C495.886,125.217,500.87,130.2,500.87,136.348z"/>
<path style="fill:#FF5200;" d="M378.435,492.522h-244.87V69.565h244.87V492.522z"/>
<path style="fill:#E7EDE2;" d="M272.696,164.174v77.913c0,3.073-2.492,5.565-5.565,5.565H244.87c-3.073,0-5.565-2.492-5.565-5.565
	v-77.913c0-3.073,2.492-5.565,5.565-5.565h22.261C270.204,158.609,272.696,161.101,272.696,164.174z M200.348,158.609h-22.261
	c-3.073,0-5.565,2.492-5.565,5.565v77.913c0,3.073,2.492,5.565,5.565,5.565h22.261c3.073,0,5.565-2.492,5.565-5.565v-77.913
	C205.913,161.101,203.421,158.609,200.348,158.609z M333.913,158.609h-22.261c-3.073,0-5.565,2.492-5.565,5.565v77.913
	c0,3.073,2.492,5.565,5.565,5.565h22.261c3.073,0,5.565-2.492,5.565-5.565v-77.913C339.478,161.101,336.986,158.609,333.913,158.609
	z M94.609,314.435H72.348c-3.073,0-5.565,2.492-5.565,5.565v55.652c0,3.073,2.492,5.565,5.565,5.565h22.261
	c3.073,0,5.565-2.492,5.565-5.565V320C100.174,316.927,97.682,314.435,94.609,314.435z M94.609,203.13H72.348
	c-3.073,0-5.565,2.492-5.565,5.565v55.652c0,3.073,2.492,5.565,5.565,5.565h22.261c3.073,0,5.565-2.492,5.565-5.565v-55.652
	C100.174,205.623,97.682,203.13,94.609,203.13z M439.652,314.435h-22.261c-3.073,0-5.565,2.492-5.565,5.565v55.652
	c0,3.073,2.492,5.565,5.565,5.565h22.261c3.073,0,5.565-2.492,5.565-5.565V320C445.217,316.927,442.725,314.435,439.652,314.435z
	 M439.652,203.13h-22.261c-3.073,0-5.565,2.492-5.565,5.565v55.652c0,3.073,2.492,5.565,5.565,5.565h22.261
	c3.073,0,5.565-2.492,5.565-5.565v-55.652C445.217,205.623,442.725,203.13,439.652,203.13z"/>
<path style="fill:#823E20;" d="M322.783,459.13H189.217V303.304c0-6.147,4.983-11.13,11.13-11.13h111.304
	c6.147,0,11.13,4.983,11.13,11.13V459.13z"/>
<path style="fill:#602812;" d="M256,292.174h55.652c6.147,0,11.13,4.983,11.13,11.13V459.13H256V292.174z"/>
<path style="fill:#FFA800;" d="M411.826,431.304v61.217H100.174v-61.217c0-3.073,2.492-5.565,5.565-5.565h300.522
	C409.334,425.739,411.826,428.231,411.826,431.304z"/>
<path style="fill:#FF8B00;" d="M512,489.739c0,4.61-3.738,8.348-8.348,8.348H8.348c-4.61,0-8.348-3.738-8.348-8.348
	s3.738-8.348,8.348-8.348h13.913v-16.696c0-3.073,2.492-5.565,5.565-5.565h456.348c3.073,0,5.565,2.492,5.565,5.565v16.696h13.913
	C508.262,481.391,512,485.129,512,489.739z"/>
<path style="fill:#990000;" d="M389.565,69.565v11.13c0,6.147-4.983,11.13-11.13,11.13h-244.87c-6.147,0-11.13-4.983-11.13-11.13
	v-11.13c0-6.147,4.983-11.13,11.13-11.13h244.87C384.582,58.435,389.565,63.418,389.565,69.565z"/>
<path style="fill:#28749E;" d="M350.609,102.957H161.391c-3.073,0-5.565-2.492-5.565-5.565V52.87c0-3.073,2.492-5.565,5.565-5.565
	h189.217c3.073,0,5.565,2.492,5.565,5.565v44.522C356.174,100.464,353.682,102.957,350.609,102.957z"/>
<path style="fill:#FFC02C;" d="M305.847,13.913c3.725,8.795,5.806,18.501,5.806,28.713c0,34.728-23.899,63.694-55.652,70.345
	c-31.753-6.652-55.652-35.617-55.652-70.345c0-10.212,2.08-19.919,5.806-28.713H305.847z"/>
<path style="fill:#FFA800;" d="M311.652,42.626c0,34.728-23.899,63.694-55.652,70.345c-12.325-2.582-23.455-8.536-32.475-16.874
	c32.145-13.434,54.736-45.168,54.736-82.185h27.586C309.572,22.708,311.652,32.414,311.652,42.626z"/>
<g>
</g>
<g>
</g>
<g>
</g>
<g>
</g>
<g>
</g>
<g>
</g>
<g>
</g>
<g>
</g>
<g>
</g>
<g>
</g>
<g>
</g>
<g>
</g>
<g>
</g>
<g>
</g>
<g>
</g>
</svg>
